# Blender v2.83.16 OBJ File: ''
# www.blender.org
g 025_Mug_16
v 0.042500 0.000000 -0.038487
v 0.042500 0.000000 -0.028487
v 0.041683 -0.008291 -0.028487
v 0.041683 -0.008291 -0.038487
v 0.039265 -0.016264 -0.028487
v 0.039265 -0.016264 -0.038487
v 0.035337 -0.023612 -0.028487
v 0.035337 -0.023612 -0.038487
v 0.030052 -0.030052 -0.028487
v 0.030052 -0.030052 -0.038487
v 0.023612 -0.035337 -0.028487
v 0.023612 -0.035337 -0.038487
v 0.016264 -0.039265 -0.028487
v 0.016264 -0.039265 -0.038487
v 0.008291 -0.041683 -0.028487
v 0.008291 -0.041683 -0.038487
v 0.000000 -0.042500 -0.028487
v 0.000000 -0.042500 -0.038487
v -0.008291 -0.041683 -0.028487
v -0.008291 -0.041683 -0.038487
v -0.016264 -0.039265 -0.028487
v -0.016264 -0.039265 -0.038487
v -0.023612 -0.035337 -0.028487
v -0.023612 -0.035337 -0.038487
v -0.030052 -0.030052 -0.028487
v -0.030052 -0.030052 -0.038487
v -0.035337 -0.023612 -0.028487
v -0.035337 -0.023612 -0.038487
v -0.039265 -0.016264 -0.028487
v -0.039265 -0.016264 -0.038487
v -0.041683 -0.008291 -0.028487
v -0.041683 -0.008291 -0.038487
v -0.042500 0.000000 -0.028487
v -0.042500 0.000000 -0.038487
v -0.041683 0.008291 -0.028487
v -0.041683 0.008291 -0.038487
v -0.039265 0.016264 -0.028487
v -0.039265 0.016264 -0.038487
v -0.035337 0.023612 -0.028487
v -0.035337 0.023612 -0.038487
v -0.030052 0.030052 -0.028487
v -0.030052 0.030052 -0.038487
v -0.023612 0.035337 -0.028487
v -0.023612 0.035337 -0.038487
v -0.016264 0.039265 -0.028487
v -0.016264 0.039265 -0.038487
v -0.008291 0.041683 -0.028487
v -0.008291 0.041683 -0.038487
v 0.000000 0.042500 -0.028487
v 0.000000 0.042500 -0.038487
v 0.008291 0.041683 -0.028487
v 0.008291 0.041683 -0.038487
v 0.016264 0.039265 -0.028487
v 0.016264 0.039265 -0.038487
v 0.023612 0.035337 -0.028487
v 0.023612 0.035337 -0.038487
v 0.030052 0.030052 -0.028487
v 0.030052 0.030052 -0.038487
v 0.035337 0.023612 -0.028487
v 0.035337 0.023612 -0.038487
v 0.039265 0.016264 -0.028487
v 0.039265 0.016264 -0.038487
v 0.041683 0.008291 -0.028487
v 0.041683 0.008291 -0.038487
vn 0.9952 -0.0980 0.0000
vn 0.9569 -0.2903 0.0000
vn 0.8819 -0.4714 0.0000
vn 0.7730 -0.6344 0.0000
vn 0.6344 -0.7730 0.0000
vn 0.4714 -0.8819 0.0000
vn 0.2903 -0.9569 0.0000
vn 0.0980 -0.9952 0.0000
vn -0.0980 -0.9952 0.0000
vn -0.2903 -0.9569 0.0000
vn -0.4714 -0.8819 0.0000
vn -0.6344 -0.7730 0.0000
vn -0.7730 -0.6344 0.0000
vn -0.8819 -0.4714 0.0000
vn -0.9569 -0.2903 0.0000
vn -0.9952 -0.0980 0.0000
vn -0.9952 0.0980 0.0000
vn -0.9569 0.2903 0.0000
vn -0.8819 0.4714 0.0000
vn -0.7730 0.6344 0.0000
vn -0.6344 0.7730 0.0000
vn -0.4714 0.8819 0.0000
vn -0.2903 0.9569 0.0000
vn -0.0980 0.9952 0.0000
vn 0.0980 0.9952 0.0000
vn 0.2903 0.9569 0.0000
vn 0.4714 0.8819 0.0000
vn 0.6344 0.7730 0.0000
vn 0.7730 0.6344 0.0000
vn 0.8819 0.4714 0.0000
vn 0.0000 0.0000 1.0000
vn 0.9569 0.2903 0.0000
vn 0.9952 0.0980 0.0000
vn 0.0000 0.0000 -1.0000
s off
f 1//1 2//1 3//1
f 1//1 3//1 4//1
f 4//2 3//2 5//2
f 4//2 5//2 6//2
f 6//3 5//3 7//3
f 6//3 7//3 8//3
f 8//4 7//4 9//4
f 8//4 9//4 10//4
f 10//5 9//5 11//5
f 10//5 11//5 12//5
f 12//6 11//6 13//6
f 12//6 13//6 14//6
f 14//7 13//7 15//7
f 14//7 15//7 16//7
f 16//8 15//8 17//8
f 16//8 17//8 18//8
f 18//9 17//9 19//9
f 18//9 19//9 20//9
f 20//10 19//10 21//10
f 20//10 21//10 22//10
f 22//11 21//11 23//11
f 22//11 23//11 24//11
f 24//12 23//12 25//12
f 24//12 25//12 26//12
f 26//13 25//13 27//13
f 26//13 27//13 28//13
f 28//14 27//14 29//14
f 28//14 29//14 30//14
f 30//15 29//15 31//15
f 30//15 31//15 32//15
f 32//16 31//16 33//16
f 32//16 33//16 34//16
f 34//17 33//17 35//17
f 34//17 35//17 36//17
f 36//18 35//18 37//18
f 36//18 37//18 38//18
f 38//19 37//19 39//19
f 38//19 39//19 40//19
f 40//20 39//20 41//20
f 40//20 41//20 42//20
f 42//21 41//21 43//21
f 42//21 43//21 44//21
f 44//22 43//22 45//22
f 44//22 45//22 46//22
f 46//23 45//23 47//23
f 46//23 47//23 48//23
f 48//24 47//24 49//24
f 48//24 49//24 50//24
f 50//25 49//25 51//25
f 50//25 51//25 52//25
f 52//26 51//26 53//26
f 52//26 53//26 54//26
f 54//27 53//27 55//27
f 54//27 55//27 56//27
f 56//28 55//28 57//28
f 56//28 57//28 58//28
f 58//29 57//29 59//29
f 58//29 59//29 60//29
f 60//30 59//30 61//30
f 60//30 61//30 62//30
f 5//31 3//31 2//31
f 2//31 63//31 61//31
f 61//31 59//31 57//31
f 57//31 55//31 53//31
f 53//31 51//31 49//31
f 49//31 47//31 45//31
f 45//31 43//31 41//31
f 41//31 39//31 37//31
f 37//31 35//31 33//31
f 33//31 31//31 29//31
f 29//31 27//31 25//31
f 25//31 23//31 21//31
f 21//31 19//31 17//31
f 17//31 15//31 13//31
f 13//31 11//31 9//31
f 9//31 7//31 5//31
f 5//31 2//31 61//31
f 61//31 57//31 53//31
f 53//31 49//31 45//31
f 45//31 41//31 37//31
f 37//31 33//31 29//31
f 29//31 25//31 21//31
f 21//31 17//31 13//31
f 13//31 9//31 5//31
f 5//31 61//31 53//31
f 53//31 45//31 37//31
f 37//31 29//31 21//31
f 21//31 13//31 5//31
f 5//31 53//31 37//31
f 37//31 21//31 5//31
f 62//32 61//32 63//32
f 62//32 63//32 64//32
f 64//33 63//33 2//33
f 64//33 2//33 1//33
f 64//34 1//34 4//34
f 4//34 6//34 8//34
f 8//34 10//34 12//34
f 12//34 14//34 16//34
f 16//34 18//34 20//34
f 20//34 22//34 24//34
f 24//34 26//34 28//34
f 28//34 30//34 32//34
f 32//34 34//34 36//34
f 36//34 38//34 40//34
f 40//34 42//34 44//34
f 44//34 46//34 48//34
f 48//34 50//34 52//34
f 52//34 54//34 56//34
f 56//34 58//34 60//34
f 60//34 62//34 64//34
f 64//34 4//34 8//34
f 8//34 12//34 16//34
f 16//34 20//34 24//34
f 24//34 28//34 32//34
f 32//34 36//34 40//34
f 40//34 44//34 48//34
f 48//34 52//34 56//34
f 56//34 60//34 64//34
f 64//34 8//34 16//34
f 16//34 24//34 32//34
f 32//34 40//34 48//34
f 48//34 56//34 64//34
f 64//34 16//34 32//34
f 32//34 48//34 64//34
g 025_Mug_15
v 0.041707 -0.008685 -0.022981
v 0.061367 -0.008685 -0.009215
v 0.061367 0.003315 -0.009215
v 0.041707 0.003315 -0.022981
v 0.065956 0.003315 -0.015769
v 0.046296 0.003315 -0.029534
v 0.065956 -0.008685 -0.015769
v 0.046296 -0.008685 -0.029534
vn -0.5736 0.0000 0.8192
vn -0.0000 1.0000 -0.0000
vn 0.5736 0.0000 -0.8192
vn 0.0000 -1.0000 0.0000
vn -0.8192 -0.0000 -0.5736
vn 0.8192 0.0000 0.5736
s off
f 65//35 66//35 67//35
f 65//35 67//35 68//35
f 68//36 67//36 69//36
f 68//36 69//36 70//36
f 70//37 69//37 71//37
f 70//37 71//37 72//37
f 72//38 71//38 66//38
f 72//38 66//38 65//38
f 68//39 70//39 72//39
f 68//39 72//39 65//39
f 69//40 67//40 66//40
f 69//40 66//40 71//40
g 025_Mug_14
v 0.057841 -0.008685 -0.015187
v 0.057841 -0.008685 0.024813
v 0.057841 0.003315 0.024813
v 0.057841 0.003315 -0.015187
v 0.065841 0.003315 0.024813
v 0.065841 0.003315 -0.015187
v 0.065841 -0.008685 0.024813
v 0.065841 -0.008685 -0.015187
vn -1.0000 0.0000 0.0000
vn 0.0000 1.0000 0.0000
vn 1.0000 0.0000 0.0000
vn 0.0000 -1.0000 0.0000
vn 0.0000 0.0000 -1.0000
vn 0.0000 0.0000 1.0000
s off
f 73//41 74//41 75//41
f 73//41 75//41 76//41
f 76//42 75//42 77//42
f 76//42 77//42 78//42
f 78//43 77//43 79//43
f 78//43 79//43 80//43
f 80//44 79//44 74//44
f 80//44 74//44 73//44
f 76//45 78//45 80//45
f 76//45 80//45 73//45
f 77//46 75//46 74//46
f 77//46 74//46 79//46
g 025_Mug_13
v 0.062224 -0.008685 0.017346
v 0.041439 -0.008685 0.029346
v 0.041439 0.003315 0.029346
v 0.062224 0.003315 0.017346
v 0.045439 0.003315 0.036274
v 0.066224 0.003315 0.024274
v 0.045439 -0.008685 0.036274
v 0.066224 -0.008685 0.024274
vn -0.5000 0.0000 -0.8660
vn -0.0000 1.0000 0.0000
vn 0.5000 0.0000 0.8660
vn 0.0000 -1.0000 0.0000
vn 0.8660 0.0000 -0.5000
vn -0.8660 0.0000 0.5000
s off
f 81//47 82//47 83//47
f 81//47 83//47 84//47
f 84//48 83//48 85//48
f 84//48 85//48 86//48
f 86//49 85//49 87//49
f 86//49 87//49 88//49
f 88//50 87//50 82//50
f 88//50 82//50 81//50
f 84//51 86//51 88//51
f 84//51 88//51 81//51
f 85//52 83//52 82//52
f 85//52 82//52 87//52
g 025_Mug_12
v -0.027339 0.029642 -0.038483
v -0.027339 0.029642 0.041517
v -0.039339 0.008858 0.041517
v -0.039339 0.008858 -0.038483
v -0.045401 0.012358 0.041517
v -0.045401 0.012358 -0.038483
v -0.033401 0.033142 0.041517
v -0.033401 0.033142 -0.038483
vn 0.8660 -0.5000 0.0000
vn -0.5000 -0.8660 0.0000
vn -0.8660 0.5000 0.0000
vn 0.5000 0.8660 0.0000
vn 0.0000 0.0000 -1.0000
vn 0.0000 0.0000 1.0000
s off
f 89//53 90//53 91//53
f 89//53 91//53 92//53
f 92//54 91//54 93//54
f 92//54 93//54 94//54
f 94//55 93//55 95//55
f 94//55 95//55 96//55
f 96//56 95//56 90//56
f 96//56 90//56 89//56
f 92//57 94//57 96//57
f 92//57 96//57 89//57
f 93//58 91//58 90//58
f 93//58 90//58 95//58
g 025_Mug_11
v -0.038500 0.012000 -0.038483
v -0.038500 0.012000 0.041517
v -0.038500 -0.012000 0.041517
v -0.038500 -0.012000 -0.038483
v -0.045500 -0.012000 0.041517
v -0.045500 -0.012000 -0.038483
v -0.045500 0.012000 0.041517
v -0.045500 0.012000 -0.038483
vn 1.0000 0.0000 0.0000
vn 0.0000 -1.0000 0.0000
vn -1.0000 0.0000 0.0000
vn 0.0000 1.0000 0.0000
vn 0.0000 0.0000 -1.0000
vn 0.0000 0.0000 1.0000
s off
f 97//59 98//59 99//59
f 97//59 99//59 100//59
f 100//60 99//60 101//60
f 100//60 101//60 102//60
f 102//61 101//61 103//61
f 102//61 103//61 104//61
f 104//62 103//62 98//62
f 104//62 98//62 97//62
f 100//63 102//63 104//63
f 100//63 104//63 97//63
f 101//64 99//64 98//64
f 101//64 98//64 103//64
g 025_Mug_10
v -0.039339 -0.008858 -0.038483
v -0.039339 -0.008858 0.041517
v -0.027339 -0.029642 0.041517
v -0.027339 -0.029642 -0.038483
v -0.033401 -0.033142 0.041517
v -0.033401 -0.033142 -0.038483
v -0.045401 -0.012358 0.041517
v -0.045401 -0.012358 -0.038483
vn 0.8660 0.5000 0.0000
vn 0.5000 -0.8660 0.0000
vn -0.8660 -0.5000 0.0000
vn -0.5000 0.8660 0.0000
vn 0.0000 0.0000 -1.0000
vn 0.0000 0.0000 1.0000
s off
f 105//65 106//65 107//65
f 105//65 107//65 108//65
f 108//66 107//66 109//66
f 108//66 109//66 110//66
f 110//67 109//67 111//67
f 110//67 111//67 112//67
f 112//68 111//68 106//68
f 112//68 106//68 105//68
f 108//69 110//69 112//69
f 108//69 112//69 105//69
f 109//70 107//70 106//70
f 109//70 106//70 111//70
g 025_Mug_9
v -0.029642 -0.027339 -0.038483
v -0.029642 -0.027339 0.041517
v -0.008858 -0.039339 0.041517
v -0.008858 -0.039339 -0.038483
v -0.012358 -0.045401 0.041517
v -0.012358 -0.045401 -0.038483
v -0.033142 -0.033401 0.041517
v -0.033142 -0.033401 -0.038483
vn 0.5000 0.8660 0.0000
vn 0.8660 -0.5000 0.0000
vn -0.5000 -0.8660 0.0000
vn -0.8660 0.5000 0.0000
vn 0.0000 0.0000 -1.0000
vn 0.0000 0.0000 1.0000
s off
f 113//71 114//71 115//71
f 113//71 115//71 116//71
f 116//72 115//72 117//72
f 116//72 117//72 118//72
f 118//73 117//73 119//73
f 118//73 119//73 120//73
f 120//74 119//74 114//74
f 120//74 114//74 113//74
f 116//75 118//75 120//75
f 116//75 120//75 113//75
f 117//76 115//76 114//76
f 117//76 114//76 119//76
g 025_Mug_8
v -0.012000 -0.038500 -0.038483
v -0.012000 -0.038500 0.041517
v 0.012000 -0.038500 0.041517
v 0.012000 -0.038500 -0.038483
v 0.012000 -0.045500 0.041517
v 0.012000 -0.045500 -0.038483
v -0.012000 -0.045500 0.041517
v -0.012000 -0.045500 -0.038483
vn 0.0000 1.0000 0.0000
vn 1.0000 0.0000 0.0000
vn 0.0000 -1.0000 0.0000
vn -1.0000 0.0000 0.0000
vn 0.0000 0.0000 -1.0000
vn 0.0000 0.0000 1.0000
s off
f 121//77 122//77 123//77
f 121//77 123//77 124//77
f 124//78 123//78 125//78
f 124//78 125//78 126//78
f 126//79 125//79 127//79
f 126//79 127//79 128//79
f 128//80 127//80 122//80
f 128//80 122//80 121//80
f 124//81 126//81 128//81
f 124//81 128//81 121//81
f 125//82 123//82 122//82
f 125//82 122//82 127//82
g 025_Mug_7
v 0.029642 0.027339 -0.038483
v 0.029642 0.027339 0.041517
v 0.008858 0.039339 0.041517
v 0.008858 0.039339 -0.038483
v 0.012358 0.045401 0.041517
v 0.012358 0.045401 -0.038483
v 0.033142 0.033401 0.041517
v 0.033142 0.033401 -0.038483
vn -0.5000 -0.8660 0.0000
vn -0.8660 0.5000 0.0000
vn 0.5000 0.8660 0.0000
vn 0.8660 -0.5000 0.0000
vn -0.0000 0.0000 -1.0000
vn -0.0000 0.0000 1.0000
s off
f 129//83 130//83 131//83
f 129//83 131//83 132//83
f 132//84 131//84 133//84
f 132//84 133//84 134//84
f 134//85 133//85 135//85
f 134//85 135//85 136//85
f 136//86 135//86 130//86
f 136//86 130//86 129//86
f 132//87 134//87 136//87
f 132//87 136//87 129//87
f 133//88 131//88 130//88
f 133//88 130//88 135//88
g 025_Mug_6
v 0.039339 0.008858 -0.038483
v 0.039339 0.008858 0.041517
v 0.027339 0.029642 0.041517
v 0.027339 0.029642 -0.038483
v 0.033401 0.033142 0.041517
v 0.033401 0.033142 -0.038483
v 0.045401 0.012358 0.041517
v 0.045401 0.012358 -0.038483
vn -0.8660 -0.5000 0.0000
vn -0.5000 0.8660 0.0000
vn 0.8660 0.5000 0.0000
vn 0.5000 -0.8660 0.0000
vn 0.0000 0.0000 -1.0000
vn 0.0000 0.0000 1.0000
s off
f 137//89 138//89 139//89
f 137//89 139//89 140//89
f 140//90 139//90 141//90
f 140//90 141//90 142//90
f 142//91 141//91 143//91
f 142//91 143//91 144//91
f 144//92 143//92 138//92
f 144//92 138//92 137//92
f 140//93 142//93 144//93
f 140//93 144//93 137//93
f 141//94 139//94 138//94
f 141//94 138//94 143//94
g 025_Mug_5
v 0.038500 -0.012000 -0.038483
v 0.038500 -0.012000 0.041517
v 0.038500 0.012000 0.041517
v 0.038500 0.012000 -0.038483
v 0.045500 0.012000 0.041517
v 0.045500 0.012000 -0.038483
v 0.045500 -0.012000 0.041517
v 0.045500 -0.012000 -0.038483
vn -1.0000 0.0000 0.0000
vn 0.0000 1.0000 0.0000
vn 1.0000 0.0000 0.0000
vn 0.0000 -1.0000 0.0000
vn 0.0000 0.0000 -1.0000
vn 0.0000 0.0000 1.0000
s off
f 145//95 146//95 147//95
f 145//95 147//95 148//95
f 148//96 147//96 149//96
f 148//96 149//96 150//96
f 150//97 149//97 151//97
f 150//97 151//97 152//97
f 152//98 151//98 146//98
f 152//98 146//98 145//98
f 148//99 150//99 152//99
f 148//99 152//99 145//99
f 149//100 147//100 146//100
f 149//100 146//100 151//100
g 025_Mug_4
v -0.008858 0.039339 -0.038483
v -0.008858 0.039339 0.041517
v -0.029642 0.027339 0.041517
v -0.029642 0.027339 -0.038483
v -0.033142 0.033401 0.041517
v -0.033142 0.033401 -0.038483
v -0.012358 0.045401 0.041517
v -0.012358 0.045401 -0.038483
vn 0.5000 -0.8660 0.0000
vn -0.8660 -0.5000 0.0000
vn -0.5000 0.8660 0.0000
vn 0.8660 0.5000 0.0000
vn 0.0000 0.0000 -1.0000
vn 0.0000 0.0000 1.0000
s off
f 153//101 154//101 155//101
f 153//101 155//101 156//101
f 156//102 155//102 157//102
f 156//102 157//102 158//102
f 158//103 157//103 159//103
f 158//103 159//103 160//103
f 160//104 159//104 154//104
f 160//104 154//104 153//104
f 156//105 158//105 160//105
f 156//105 160//105 153//105
f 157//106 155//106 154//106
f 157//106 154//106 159//106
g 025_Mug_3
v 0.027339 -0.029642 -0.038483
v 0.027339 -0.029642 0.041517
v 0.039339 -0.008858 0.041517
v 0.039339 -0.008858 -0.038483
v 0.045401 -0.012358 0.041517
v 0.045401 -0.012358 -0.038483
v 0.033401 -0.033142 0.041517
v 0.033401 -0.033142 -0.038483
vn -0.8660 0.5000 0.0000
vn 0.5000 0.8660 0.0000
vn 0.8660 -0.5000 0.0000
vn -0.5000 -0.8660 0.0000
vn 0.0000 0.0000 -1.0000
vn 0.0000 0.0000 1.0000
s off
f 161//107 162//107 163//107
f 161//107 163//107 164//107
f 164//108 163//108 165//108
f 164//108 165//108 166//108
f 166//109 165//109 167//109
f 166//109 167//109 168//109
f 168//110 167//110 162//110
f 168//110 162//110 161//110
f 164//111 166//111 168//111
f 164//111 168//111 161//111
f 165//112 163//112 162//112
f 165//112 162//112 167//112
g 025_Mug_2
v 0.008858 -0.039339 -0.038483
v 0.008858 -0.039339 0.041517
v 0.029642 -0.027339 0.041517
v 0.029642 -0.027339 -0.038483
v 0.033142 -0.033401 0.041517
v 0.033142 -0.033401 -0.038483
v 0.012358 -0.045401 0.041517
v 0.012358 -0.045401 -0.038483
vn -0.5000 0.8660 0.0000
vn 0.8660 0.5000 0.0000
vn 0.5000 -0.8660 0.0000
vn -0.8660 -0.5000 0.0000
vn 0.0000 0.0000 -1.0000
vn 0.0000 0.0000 1.0000
s off
f 169//113 170//113 171//113
f 169//113 171//113 172//113
f 172//114 171//114 173//114
f 172//114 173//114 174//114
f 174//115 173//115 175//115
f 174//115 175//115 176//115
f 176//116 175//116 170//116
f 176//116 170//116 169//116
f 172//117 174//117 176//117
f 172//117 176//117 169//117
f 173//118 171//118 170//118
f 173//118 170//118 175//118
g 025_Mug_1
v 0.012000 0.038500 -0.038483
v 0.012000 0.038500 0.041517
v -0.012000 0.038500 0.041517
v -0.012000 0.038500 -0.038483
v -0.012000 0.045500 0.041517
v -0.012000 0.045500 -0.038483
v 0.012000 0.045500 0.041517
v 0.012000 0.045500 -0.038483
vn 0.0000 -1.0000 0.0000
vn -1.0000 0.0000 0.0000
vn 0.0000 1.0000 0.0000
vn 1.0000 0.0000 0.0000
vn 0.0000 0.0000 -1.0000
vn 0.0000 0.0000 1.0000
s off
f 177//119 178//119 179//119
f 177//119 179//119 180//119
f 180//120 179//120 181//120
f 180//120 181//120 182//120
f 182//121 181//121 183//121
f 182//121 183//121 184//121
f 184//122 183//122 178//122
f 184//122 178//122 177//122
f 180//123 182//123 184//123
f 180//123 184//123 177//123
f 181//124 179//124 178//124
f 181//124 178//124 183//124
