# Blender v2.83.17 OBJ File: ''
# www.blender.org
g textured_simple.002_1
v 0.020258 0.036996 -0.017837
v -0.026684 -0.038351 -0.011655
v -0.026684 -0.038351 0.029110
v 0.025201 -0.039597 0.032813
v -0.025450 0.037004 0.034058
v 0.026436 0.036996 0.032813
v 0.025201 -0.037120 -0.017837
v -0.025450 0.038242 -0.017837
v -0.026684 -0.037120 -0.017837
v 0.026436 0.036996 -0.016597
v -0.025450 -0.039589 0.034058
v -0.026684 0.038242 0.000699
v 0.027671 0.034527 0.026636
v 0.023967 -0.039597 0.034058
v -0.015568 0.039481 0.003173
v 0.022732 0.036996 0.034058
v 0.026436 -0.009935 -0.017837
v 0.026436 -0.028466 0.029110
v 0.025201 -0.038351 -0.016597
v 0.022732 0.038242 -0.016597
v -0.026684 -0.003750 0.034058
v -0.024215 -0.039589 0.019230
v -0.025450 0.039481 -0.016597
v -0.024215 0.038242 0.025402
v -0.026684 0.033296 -0.011655
v -0.021746 -0.038351 -0.017837
v -0.006920 0.039481 -0.016597
v 0.026436 -0.008704 0.032813
v -0.022981 0.039481 0.008111
v -0.026684 0.035773 0.011809
v 0.026436 0.027119 -0.017837
v 0.017788 0.038242 -0.000535
vn 0.0390 0.9991 0.0171
vn 0.0000 0.0000 -1.0000
vn -1.0000 0.0000 0.0000
vn -0.7083 -0.7060 0.0000
vn 0.8944 0.4474 0.0000
vn 0.0000 0.0000 1.0000
vn 0.3186 0.0051 0.9479
vn 0.9998 -0.0199 -0.0079
vn 0.9980 -0.0453 -0.0450
vn 0.9989 -0.0442 -0.0174
vn 0.9938 -0.1112 -0.0028
vn 0.3188 0.9478 0.0000
vn 0.1699 0.5049 -0.8463
vn -0.9717 -0.0335 0.2340
vn -0.2384 -0.9710 -0.0199
vn -0.0001 -1.0000 -0.0001
vn -0.0002 -1.0000 -0.0000
vn 0.0068 -0.9997 -0.0252
vn -0.5072 0.8604 0.0507
vn 0.0002 0.9899 0.1416
vn -0.9829 0.0161 -0.1833
vn -0.9870 0.1492 -0.0597
vn -0.9879 0.1096 -0.1095
vn -0.2375 -0.9527 -0.1897
vn 0.0186 -0.7096 -0.7044
vn -0.0455 -0.9983 -0.0364
vn 0.0009 -0.9994 -0.0333
vn 0.0158 0.5794 -0.8149
vn 0.0283 0.6764 -0.7360
vn 0.0000 0.7074 -0.7068
vn 0.0000 1.0000 -0.0000
vn 0.9806 0.0000 0.1961
vn 0.7100 -0.0284 0.7037
vn 0.4502 0.0000 0.8929
vn 0.9962 -0.0161 0.0862
vn 0.9772 -0.0391 0.2085
vn 0.0287 0.9987 0.0431
vn 0.0202 0.9980 0.0600
vn -0.3856 0.9219 0.0385
vn 0.0131 0.9973 0.0724
vn -0.9797 0.1958 0.0435
vn -0.9981 0.0302 0.0537
vn 0.1953 0.1222 -0.9731
vn 0.9996 0.0036 -0.0284
vn 0.9996 -0.0000 -0.0278
vn 0.0401 0.9988 0.0269
vn 0.0657 0.9976 0.0202
vn 0.0417 0.9990 0.0128
s off
f 27//1 15//1 32//1
f 1//2 7//2 8//2
f 8//2 7//2 9//2
f 2//3 3//3 9//3
f 3//4 2//4 11//4
f 9//3 3//3 12//3
f 10//5 6//5 13//5
f 5//6 11//6 14//6
f 14//7 6//7 16//7
f 5//6 14//6 16//6
f 7//2 1//2 17//2
f 17//8 13//8 18//8
f 7//9 17//9 19//9
f 17//10 18//10 19//10
f 18//11 4//11 19//11
f 6//12 10//12 20//12
f 10//13 1//13 20//13
f 3//14 11//14 21//14
f 11//6 5//6 21//6
f 12//3 3//3 21//3
f 11//15 2//15 22//15
f 4//16 14//16 22//16
f 14//17 11//17 22//17
f 19//18 4//18 22//18
f 12//19 5//19 24//19
f 5//20 16//20 24//20
f 8//21 9//21 25//21
f 9//3 12//3 25//3
f 12//22 23//22 25//22
f 23//23 8//23 25//23
f 9//2 7//2 26//2
f 2//24 9//24 26//24
f 7//25 19//25 26//25
f 22//26 2//26 26//26
f 19//27 22//27 26//27
f 1//28 8//28 27//28
f 20//29 1//29 27//29
f 8//30 23//30 27//30
f 23//31 15//31 27//31
f 13//32 6//32 28//32
f 14//33 4//33 28//33
f 6//34 14//34 28//34
f 18//35 13//35 28//35
f 4//36 18//36 28//36
f 6//37 15//37 29//37
f 16//38 6//38 29//38
f 23//39 12//39 29//39
f 15//31 23//31 29//31
f 12//39 24//39 29//39
f 24//40 16//40 29//40
f 5//41 12//41 30//41
f 21//42 5//42 30//42
f 12//3 21//3 30//3
f 1//43 10//43 31//43
f 10//44 13//44 31//44
f 17//2 1//2 31//2
f 13//45 17//45 31//45
f 15//46 6//46 32//46
f 6//47 20//47 32//47
f 20//48 27//48 32//48
