# Blender v2.83.17 OBJ File: ''
# www.blender.org
g textured_simple_1
v 0.004329 0.064662 0.010104
v -0.036589 -0.049878 -0.001346
v -0.036589 -0.049878 0.001923
v -0.000584 -0.095700 -0.006254
v 0.009236 0.051582 -0.017718
v 0.009236 0.020489 0.019928
v -0.026765 -0.015536 -0.016079
v -0.025132 -0.040047 0.018288
v -0.025132 0.023755 0.005195
v -0.016940 -0.092418 -0.014439
v -0.008766 -0.094067 0.008467
v -0.021852 0.010658 0.018288
v -0.021852 -0.095700 0.003559
v -0.013674 0.040135 -0.007890
v -0.012041 -0.066224 -0.017718
v 0.009236 0.058131 0.018288
v 0.009241 0.000827 -0.004618
v -0.036589 -0.022034 0.003559
v -0.026765 -0.044962 -0.017718
v 0.001054 -0.087519 0.001923
v -0.010408 -0.072789 0.015016
v -0.031677 -0.056409 0.013380
v -0.003854 -0.079337 -0.014439
v -0.031677 -0.076072 -0.004618
v 0.007604 0.067962 -0.004618
v -0.031677 -0.000806 -0.004618
v -0.012041 0.045034 0.011743
v -0.016940 0.018840 -0.016079
v -0.031677 -0.018768 0.015016
v -0.010408 -0.030216 0.019928
v -0.008766 0.033570 0.019928
v -0.016940 -0.102265 -0.006254
vn -0.8690 -0.4819 -0.1126
vn 0.9340 -0.0892 -0.3460
vn 1.0000 0.0001 -0.0000
vn 1.0000 0.0000 0.0002
vn -1.0000 0.0000 0.0000
vn -0.8609 0.0283 -0.5081
vn 0.0000 0.0000 -1.0000
vn -0.1402 -0.0971 -0.9853
vn 0.6828 -0.5804 0.4439
vn 0.9901 -0.0991 -0.0992
vn 0.9938 -0.0869 0.0698
vn -0.3016 -0.3017 0.9045
vn 0.6272 -0.1845 0.7567
vn 0.6360 -0.1735 0.7520
vn -0.9234 -0.0225 0.3831
vn -0.2247 -0.1964 0.9544
vn -0.3018 -0.3015 0.9044
vn 0.8417 -0.0975 -0.5311
vn 0.3590 -0.3592 -0.8615
vn 0.2962 -0.0535 -0.9536
vn 0.1504 -0.1504 -0.9771
vn -0.9829 -0.1843 0.0000
vn -0.8416 -0.0913 -0.5324
vn -0.6816 -0.1899 -0.7066
vn -0.9342 -0.2409 0.2632
vn -0.8910 -0.3065 0.3349
vn -0.5392 0.4926 -0.6831
vn 0.5466 0.7829 0.2971
vn 0.9931 0.1158 -0.0211
vn -0.8881 0.0585 -0.4558
vn -0.8773 0.3604 -0.3170
vn -0.9225 0.0670 -0.3802
vn -0.9695 0.2410 0.0434
vn -0.7887 0.3245 0.5222
vn -0.8411 0.5371 -0.0641
vn -0.5175 0.4901 0.7014
vn -0.7688 0.6389 -0.0278
vn -0.7864 0.6116 -0.0872
vn -0.5174 0.3751 -0.7691
vn -0.1910 0.0546 -0.9801
vn -0.1164 0.0434 -0.9922
vn -0.7636 0.2182 -0.6077
vn -0.8078 0.3154 -0.4980
vn -0.3817 0.0247 0.9240
vn -0.8599 0.2368 0.4523
vn -0.9180 0.2178 0.3315
vn -0.5394 -0.0366 0.8412
vn -0.9172 -0.0173 0.3981
vn 0.2837 -0.1099 0.9526
vn -0.0341 -0.1146 0.9928
vn -0.1399 0.0091 0.9901
vn 0.0316 0.0435 0.9986
vn -0.6411 0.3161 0.6993
vn -0.4891 0.4099 0.7699
vn 0.0000 -0.0000 1.0000
vn -0.1126 0.0029 0.9936
vn 0.2485 -0.6192 -0.7449
vn 0.3558 -0.8864 0.2961
vn -0.0901 -0.8480 0.5223
vn -0.7738 -0.4049 -0.4871
s off
f 13//1 24//1 32//1
f 4//2 5//2 17//2
f 5//3 16//3 17//3
f 16//4 6//4 17//4
f 2//5 3//5 18//5
f 2//6 7//6 19//6
f 5//7 15//7 19//7
f 15//8 10//8 19//8
f 11//9 4//9 20//9
f 4//10 17//10 20//10
f 17//11 6//11 20//11
f 13//12 11//12 21//12
f 11//13 20//13 21//13
f 20//14 6//14 21//14
f 18//15 3//15 22//15
f 21//16 8//16 22//16
f 13//17 21//17 22//17
f 5//18 4//18 23//18
f 4//19 10//19 23//19
f 15//20 5//20 23//20
f 10//21 15//21 23//21
f 3//22 2//22 24//22
f 2//23 19//23 24//23
f 19//24 10//24 24//24
f 22//25 3//25 24//25
f 13//26 22//26 24//26
f 5//27 14//27 25//27
f 1//28 16//28 25//28
f 16//29 5//29 25//29
f 7//30 2//30 26//30
f 9//31 14//31 26//31
f 2//32 18//32 26//32
f 18//33 9//33 26//33
f 9//34 12//34 27//34
f 14//35 9//35 27//35
f 16//36 1//36 27//36
f 1//37 25//37 27//37
f 25//38 14//38 27//38
f 14//39 5//39 28//39
f 19//40 7//40 28//40
f 5//41 19//41 28//41
f 7//42 26//42 28//42
f 26//43 14//43 28//43
f 8//44 12//44 29//44
f 12//45 9//45 29//45
f 9//46 18//46 29//46
f 22//47 8//47 29//47
f 18//48 22//48 29//48
f 21//49 6//49 30//49
f 8//50 21//50 30//50
f 12//51 8//51 31//51
f 6//52 16//52 31//52
f 27//53 12//53 31//53
f 16//54 27//54 31//54
f 30//55 6//55 31//55
f 8//56 30//56 31//56
f 10//57 4//57 32//57
f 4//58 11//58 32//58
f 11//59 13//59 32//59
f 24//60 10//60 32//60
g textured_simple_2
v 0.012521 0.071224 0.006831
v 0.009249 0.002497 0.000290
v 0.009249 0.002497 0.006831
v 0.050153 0.058128 -0.012803
v 0.009249 0.053220 -0.017718
v 0.040337 0.056492 0.011743
v 0.009249 0.049948 0.019928
v 0.048519 0.076132 -0.009530
v 0.010883 0.017228 -0.012803
v 0.033790 0.076132 0.010104
v 0.010883 0.023780 0.019928
v 0.025612 0.076132 -0.007890
v 0.050153 0.061408 0.003559
v 0.038699 0.064680 -0.017718
v 0.009249 0.069588 -0.002982
v 0.010883 0.002497 0.006831
v 0.023974 0.054856 0.018288
v 0.009249 0.063044 0.016652
v 0.027250 0.069588 -0.016079
v 0.050153 0.071224 0.001923
v 0.010883 0.009048 0.013380
v 0.009249 0.040140 -0.017718
v 0.010883 0.004140 -0.002982
v 0.050153 0.072860 -0.014439
v 0.035428 0.056492 -0.017718
v 0.027250 0.077782 0.001923
v 0.050153 0.058128 -0.001346
v 0.033790 0.069588 0.013380
v 0.014155 0.064680 -0.014439
v 0.017431 0.069588 0.015016
v 0.043609 0.076132 0.005195
v 0.010883 0.010684 -0.009530
vn 0.6226 -0.5535 -0.5532
vn -1.0000 0.0000 0.0000
vn -0.9735 -0.0608 0.2202
vn 0.0000 -1.0000 -0.0000
vn 0.3786 -0.1110 0.9189
vn 0.1085 0.0068 0.9941
vn -0.8181 0.5456 0.1818
vn -0.0669 0.1720 -0.9828
vn 1.0000 -0.0000 0.0000
vn 0.5949 0.1321 0.7929
vn -0.8974 -0.1792 0.4032
vn 0.5762 -0.3320 0.7468
vn 0.6963 -0.4120 0.5877
vn 0.0000 -0.7070 0.7072
vn 0.7458 -0.4710 0.4711
vn -0.9579 -0.1239 -0.2589
vn 0.0000 0.0000 -1.0000
vn 0.5514 -0.8228 -0.1378
vn 0.7959 -0.5971 -0.1000
vn -0.0403 0.8252 -0.5634
vn 0.3415 -0.1037 -0.9341
vn -0.0653 0.7731 -0.6309
vn 0.0168 0.3517 -0.9360
vn 0.9165 0.3980 0.0398
vn 0.3318 -0.3186 -0.8879
vn 0.3269 -0.1306 -0.9360
vn 0.1247 -0.1996 -0.9719
vn -0.0117 0.9864 -0.1639
vn -0.4109 0.9116 -0.0150
vn -0.3926 0.9154 -0.0884
vn 0.8170 -0.5767 0.0000
vn 0.7911 -0.5085 0.3400
vn 0.3648 0.0663 0.9287
vn 0.5530 0.1746 0.8147
vn -0.7294 0.4577 -0.5084
vn -0.4468 0.7370 -0.5071
vn -0.3409 0.7000 -0.6275
vn -0.2486 0.3633 -0.8979
vn 0.0316 0.2301 0.9727
vn -0.5017 0.7395 0.4488
vn -0.0001 0.2427 0.9701
vn -0.2821 0.8941 0.3479
vn -0.2447 0.8938 0.3759
vn 0.0962 0.2563 0.9618
vn 0.0891 0.4459 0.8907
vn 0.6529 0.7254 0.2177
vn 0.0711 0.9873 0.1423
vn 0.0941 0.9951 0.0314
vn 0.4081 0.4087 0.8163
vn 0.5500 0.1914 0.8129
vn -0.9527 -0.1360 -0.2719
vn 0.4223 -0.4055 -0.8107
vn -0.5758 -0.5783 -0.5779
s off
f 36//61 55//61 64//61
f 34//62 35//62 37//62
f 37//62 35//62 39//62
f 39//63 35//63 43//63
f 37//62 39//62 47//62
f 35//64 34//64 48//64
f 43//65 38//65 49//65
f 39//66 43//66 49//66
f 33//67 47//67 50//67
f 47//62 39//62 50//62
f 46//68 37//68 51//68
f 45//69 36//69 52//69
f 38//70 45//70 52//70
f 43//71 35//71 53//71
f 38//72 43//72 53//72
f 45//73 38//73 53//73
f 35//74 48//74 53//74
f 48//75 45//75 53//75
f 34//62 37//62 54//62
f 41//76 34//76 54//76
f 37//77 46//77 54//77
f 48//78 34//78 55//78
f 36//79 48//79 55//79
f 44//80 40//80 56//80
f 36//81 46//81 56//81
f 51//82 44//82 56//82
f 46//83 51//83 56//83
f 52//69 36//69 56//69
f 40//84 52//84 56//84
f 36//85 41//85 57//85
f 46//86 36//86 57//86
f 41//87 54//87 57//87
f 54//77 46//77 57//77
f 40//88 44//88 58//88
f 47//89 33//89 58//89
f 44//90 47//90 58//90
f 36//69 45//69 59//69
f 48//91 36//91 59//91
f 45//92 48//92 59//92
f 49//93 38//93 60//93
f 38//94 52//94 60//94
f 37//95 47//95 61//95
f 47//96 44//96 61//96
f 44//97 51//97 61//97
f 51//98 37//98 61//98
f 39//99 49//99 62//99
f 33//100 50//100 62//100
f 50//101 39//101 62//101
f 58//102 33//102 62//102
f 42//103 58//103 62//103
f 49//104 60//104 62//104
f 60//105 42//105 62//105
f 52//106 40//106 63//106
f 58//107 42//107 63//107
f 40//108 58//108 63//108
f 42//109 60//109 63//109
f 60//110 52//110 63//110
f 34//111 41//111 64//111
f 41//112 36//112 64//112
f 55//113 34//113 64//113
g textured_simple_3
v 0.071435 0.071234 -0.002987
v 0.063253 0.069597 -0.017718
v 0.050163 0.061416 -0.014442
v 0.050163 0.076144 -0.007898
v 0.050163 0.063054 0.001923
v 0.073072 0.064691 -0.014442
v 0.073072 0.077782 -0.012806
v 0.050163 0.074506 -0.001351
v 0.050163 0.072869 -0.014442
v 0.051802 0.059779 -0.002987
v 0.073072 0.066326 -0.006263
v 0.073072 0.076144 -0.004627
v 0.071435 0.074506 -0.017718
v 0.051802 0.067963 0.001923
v 0.058348 0.076144 -0.014442
v 0.051802 0.059779 -0.012806
v 0.071435 0.064691 -0.016080
v 0.074713 0.071234 -0.012806
v 0.069799 0.077782 -0.007898
v 0.051802 0.071234 -0.016080
v 0.068162 0.077782 -0.014442
v 0.051802 0.063054 0.001923
v 0.073072 0.064691 -0.009532
v 0.071435 0.067963 -0.017718
v 0.071435 0.066326 -0.004627
v 0.050163 0.076144 -0.011168
v 0.050163 0.059779 -0.002987
v 0.074713 0.069597 -0.009532
v 0.068162 0.074506 -0.017718
v 0.071435 0.069597 -0.002987
v 0.051802 0.061416 0.000285
v 0.073072 0.067963 -0.004627
vn 0.4090 -0.4090 0.8157
vn -1.0000 0.0000 0.0000
vn -0.6356 0.2122 0.7423
vn 0.0928 0.4640 0.8809
vn 0.1952 0.2516 0.9480
vn 0.2250 -0.9744 0.0000
vn 0.0486 -0.6813 -0.7304
vn 0.2052 -0.9570 -0.2051
vn 0.9689 0.2428 0.0486
vn 0.8726 0.2187 -0.4367
vn -0.0807 0.9669 0.2419
vn 0.2825 0.9406 0.1884
vn 0.0001 0.8942 0.4477
vn -0.1594 -0.1365 -0.9777
vn -0.7069 0.0000 -0.7073
vn -0.2267 0.5665 -0.7923
vn 0.1961 0.7844 -0.5885
vn -0.0831 0.9963 0.0208
vn 0.0000 1.0000 0.0000
vn 0.2426 0.0000 0.9701
vn 0.0000 -0.0000 1.0000
vn -0.0579 -0.2899 -0.9553
vn 0.0000 0.0000 -1.0000
vn 0.0001 -0.4477 -0.8942
vn 0.6668 -0.3336 -0.6664
vn 0.8542 -0.0860 -0.5128
vn 0.8318 0.0000 -0.5551
vn 0.3202 -0.8615 0.3940
vn 0.4081 -0.8165 0.4084
vn -0.2722 0.6803 -0.6805
vn -0.0906 0.9959 0.0000
vn -0.1522 0.9121 -0.3806
vn -0.6466 -0.7552 -0.1079
vn 0.0000 -1.0000 0.0000
vn 0.9703 -0.2163 -0.1082
vn 0.9798 0.1787 0.0893
vn 0.9484 -0.3172 0.0000
vn 0.9366 -0.3133 0.1567
vn -0.1232 0.1232 -0.9847
vn -0.1885 0.5276 -0.8283
vn 0.0000 0.7071 -0.7071
vn -0.1172 0.7022 -0.7022
vn 0.7077 0.0000 0.7065
vn 0.3494 -0.4199 0.8376
vn 0.0000 -0.7071 0.7071
vn 0.3182 -0.8478 0.4242
vn 0.3335 -0.6666 0.6666
vn -0.2668 -0.8018 0.5348
vn 0.0000 -0.8943 0.4474
vn 0.5772 -0.5772 0.5776
vn 0.9424 -0.2364 0.2365
vn 0.9483 0.0000 0.3173
vn 0.7078 -0.0000 0.7065
s off
f 94//114 89//114 96//114
f 68//115 67//115 69//115
f 68//115 69//115 72//115
f 67//115 68//115 73//115
f 72//116 69//116 78//116
f 76//117 72//117 78//117
f 65//118 76//118 78//118
f 70//119 74//119 80//119
f 80//120 67//120 81//120
f 70//121 80//121 81//121
f 71//122 76//122 82//122
f 77//123 71//123 82//123
f 68//124 72//124 83//124
f 76//125 71//125 83//125
f 72//126 76//126 83//126
f 66//127 67//127 84//127
f 67//128 73//128 84//128
f 73//129 79//129 84//129
f 71//130 77//130 85//130
f 68//131 83//131 85//131
f 83//132 71//132 85//132
f 65//133 78//133 86//133
f 78//134 69//134 86//134
f 74//119 70//119 87//119
f 67//135 66//135 88//135
f 66//136 77//136 88//136
f 81//137 67//137 88//137
f 70//138 81//138 88//138
f 82//139 70//139 88//139
f 77//140 82//140 88//140
f 74//141 87//141 89//141
f 87//142 75//142 89//142
f 73//115 68//115 90//115
f 79//143 73//143 90//143
f 68//144 85//144 90//144
f 85//145 79//145 90//145
f 69//115 67//115 91//115
f 67//146 80//146 91//146
f 80//147 74//147 91//147
f 70//148 82//148 92//148
f 82//149 76//149 92//149
f 87//150 70//150 92//150
f 75//151 87//151 92//151
f 77//136 66//136 93//136
f 66//152 84//152 93//152
f 84//153 79//153 93//153
f 85//154 77//154 93//154
f 79//155 85//155 93//155
f 76//156 65//156 94//156
f 65//133 86//133 94//133
f 86//157 89//157 94//157
f 86//158 69//158 95//158
f 74//159 89//159 95//159
f 89//160 86//160 95//160
f 69//161 91//161 95//161
f 91//162 74//162 95//162
f 89//163 75//163 96//163
f 75//164 92//164 96//164
f 92//165 76//165 96//165
f 76//166 94//166 96//166
